<svg xmlns="http://www.w3.org/2000/svg" viewBox="0 0 100 100" width="100%" height="100%">
  <circle cx="50" cy="50" r="48" fill="#1E3A8A" />

  <path d="M 5 55 Q 25 40 50 55 T 95 55 L 95 90 A 48 48 0 0 1 5 90 Z" fill="#2563EB" opacity="0.8"/>

  <rect x="42" y="15" width="16" height="70" fill="#F8FAFC" rx="2" />

  <line x1="42" y1="25" x2="50" y2="25" stroke="#1E3A8A" stroke-width="2" />
  <line x1="42" y1="35" x2="50" y2="35" stroke="#1E3A8A" stroke-width="2" />
  <line x1="42" y1="45" x2="50" y2="45" stroke="#1E3A8A" stroke-width="2" />
  <line x1="42" y1="55" x2="50" y2="55" stroke="#1E3A8A" stroke-width="2" />
  <line x1="42" y1="65" x2="50" y2="65" stroke="#1E3A8A" stroke-width="2" />
  <line x1="42" y1="75" x2="50" y2="75" stroke="#1E3A8A" stroke-width="2" />

  <path d="M 5 65 Q 25 50 50 65 T 95 65 L 95 90 A 48 48 0 0 1 5 90 Z" fill="#60A5FA" opacity="0.9"/>
</svg>